<mxfile host="app.diagrams.net" modified="2024-04-25T23:28:40.737Z" agent="Mozilla/5.0 (Windows NT 10.0; Win64; x64) AppleWebKit/537.36 (KHTML, like Gecko) Chrome/124.0.0.0 Safari/537.36" etag="pWbgLH1iLLJRQOcgqnh6" version="24.3.0" type="github">
  <diagram id="R2lEEEUBdFMjLlhIrx00" name="Page-1">
    <mxGraphModel dx="880" dy="468" grid="1" gridSize="10" guides="1" tooltips="1" connect="1" arrows="1" fold="1" page="1" pageScale="1" pageWidth="850" pageHeight="1100" math="0" shadow="0" extFonts="Permanent Marker^https://fonts.googleapis.com/css?family=Permanent+Marker">
      <root>
        <mxCell id="0" />
        <mxCell id="1" parent="0" />
        <mxCell id="TqYT2SiAFiG7cCbTbI7m-1" value="Profesor" style="whiteSpace=wrap;html=1;align=center;" vertex="1" parent="1">
          <mxGeometry x="120" y="210" width="100" height="40" as="geometry" />
        </mxCell>
        <mxCell id="TqYT2SiAFiG7cCbTbI7m-2" value="Curso" style="whiteSpace=wrap;html=1;align=center;" vertex="1" parent="1">
          <mxGeometry x="370" y="100" width="100" height="40" as="geometry" />
        </mxCell>
        <mxCell id="TqYT2SiAFiG7cCbTbI7m-3" value="Alumno" style="whiteSpace=wrap;html=1;align=center;" vertex="1" parent="1">
          <mxGeometry x="550" y="220" width="100" height="40" as="geometry" />
        </mxCell>
        <mxCell id="TqYT2SiAFiG7cCbTbI7m-13" style="edgeStyle=orthogonalEdgeStyle;rounded=0;orthogonalLoop=1;jettySize=auto;html=1;exitX=1;exitY=1;exitDx=0;exitDy=0;entryX=0.25;entryY=0;entryDx=0;entryDy=0;endArrow=none;endFill=0;" edge="1" parent="1" source="TqYT2SiAFiG7cCbTbI7m-6" target="TqYT2SiAFiG7cCbTbI7m-1">
          <mxGeometry relative="1" as="geometry" />
        </mxCell>
        <mxCell id="TqYT2SiAFiG7cCbTbI7m-6" value="Nombres" style="ellipse;whiteSpace=wrap;html=1;align=center;" vertex="1" parent="1">
          <mxGeometry x="40" y="90" width="100" height="40" as="geometry" />
        </mxCell>
        <mxCell id="TqYT2SiAFiG7cCbTbI7m-7" value="apellidos" style="ellipse;whiteSpace=wrap;html=1;align=center;" vertex="1" parent="1">
          <mxGeometry x="50" y="300" width="100" height="40" as="geometry" />
        </mxCell>
        <mxCell id="TqYT2SiAFiG7cCbTbI7m-10" style="edgeStyle=orthogonalEdgeStyle;rounded=0;orthogonalLoop=1;jettySize=auto;html=1;exitX=1;exitY=1;exitDx=0;exitDy=0;entryX=0;entryY=0;entryDx=0;entryDy=0;endArrow=none;endFill=0;" edge="1" parent="1" source="TqYT2SiAFiG7cCbTbI7m-8" target="TqYT2SiAFiG7cCbTbI7m-1">
          <mxGeometry relative="1" as="geometry" />
        </mxCell>
        <mxCell id="TqYT2SiAFiG7cCbTbI7m-8" value="Código" style="ellipse;whiteSpace=wrap;html=1;align=center;" vertex="1" parent="1">
          <mxGeometry x="10" y="170" width="100" height="40" as="geometry" />
        </mxCell>
        <mxCell id="TqYT2SiAFiG7cCbTbI7m-11" style="edgeStyle=orthogonalEdgeStyle;rounded=0;orthogonalLoop=1;jettySize=auto;html=1;exitX=1;exitY=0;exitDx=0;exitDy=0;entryX=0;entryY=1;entryDx=0;entryDy=0;endArrow=none;endFill=0;" edge="1" parent="1" source="TqYT2SiAFiG7cCbTbI7m-9" target="TqYT2SiAFiG7cCbTbI7m-1">
          <mxGeometry relative="1" as="geometry" />
        </mxCell>
        <mxCell id="TqYT2SiAFiG7cCbTbI7m-9" value="DNI" style="ellipse;whiteSpace=wrap;html=1;align=center;" vertex="1" parent="1">
          <mxGeometry x="10" y="240" width="100" height="40" as="geometry" />
        </mxCell>
        <mxCell id="TqYT2SiAFiG7cCbTbI7m-12" style="edgeStyle=orthogonalEdgeStyle;rounded=0;orthogonalLoop=1;jettySize=auto;html=1;exitX=1;exitY=0;exitDx=0;exitDy=0;entryX=0.25;entryY=1;entryDx=0;entryDy=0;endArrow=none;endFill=0;" edge="1" parent="1" source="TqYT2SiAFiG7cCbTbI7m-7" target="TqYT2SiAFiG7cCbTbI7m-1">
          <mxGeometry relative="1" as="geometry" />
        </mxCell>
        <mxCell id="TqYT2SiAFiG7cCbTbI7m-21" style="edgeStyle=orthogonalEdgeStyle;rounded=0;orthogonalLoop=1;jettySize=auto;html=1;exitX=1;exitY=1;exitDx=0;exitDy=0;entryX=0;entryY=0;entryDx=0;entryDy=0;endArrow=none;endFill=0;" edge="1" parent="1" source="TqYT2SiAFiG7cCbTbI7m-14" target="TqYT2SiAFiG7cCbTbI7m-2">
          <mxGeometry relative="1" as="geometry" />
        </mxCell>
        <mxCell id="TqYT2SiAFiG7cCbTbI7m-14" value="Código" style="ellipse;whiteSpace=wrap;html=1;align=center;" vertex="1" parent="1">
          <mxGeometry x="230" y="40" width="100" height="40" as="geometry" />
        </mxCell>
        <mxCell id="TqYT2SiAFiG7cCbTbI7m-20" value="" style="edgeStyle=orthogonalEdgeStyle;rounded=0;orthogonalLoop=1;jettySize=auto;html=1;endArrow=none;endFill=0;" edge="1" parent="1" source="TqYT2SiAFiG7cCbTbI7m-15" target="TqYT2SiAFiG7cCbTbI7m-2">
          <mxGeometry relative="1" as="geometry" />
        </mxCell>
        <mxCell id="TqYT2SiAFiG7cCbTbI7m-15" value="Nombre" style="ellipse;whiteSpace=wrap;html=1;align=center;" vertex="1" parent="1">
          <mxGeometry x="360" y="30" width="100" height="40" as="geometry" />
        </mxCell>
        <mxCell id="TqYT2SiAFiG7cCbTbI7m-19" style="edgeStyle=orthogonalEdgeStyle;rounded=0;orthogonalLoop=1;jettySize=auto;html=1;exitX=0;exitY=1;exitDx=0;exitDy=0;entryX=1;entryY=0;entryDx=0;entryDy=0;endArrow=none;endFill=0;" edge="1" parent="1" source="TqYT2SiAFiG7cCbTbI7m-16" target="TqYT2SiAFiG7cCbTbI7m-2">
          <mxGeometry relative="1" as="geometry" />
        </mxCell>
        <mxCell id="TqYT2SiAFiG7cCbTbI7m-16" value="Cant. Horas de Catedra Semanales" style="ellipse;whiteSpace=wrap;html=1;align=center;" vertex="1" parent="1">
          <mxGeometry x="510" y="40" width="100" height="40" as="geometry" />
        </mxCell>
        <mxCell id="TqYT2SiAFiG7cCbTbI7m-33" style="edgeStyle=orthogonalEdgeStyle;rounded=0;orthogonalLoop=1;jettySize=auto;html=1;exitX=0.5;exitY=1;exitDx=0;exitDy=0;entryX=0.5;entryY=0;entryDx=0;entryDy=0;endArrow=none;endFill=0;" edge="1" parent="1" source="TqYT2SiAFiG7cCbTbI7m-17" target="TqYT2SiAFiG7cCbTbI7m-3">
          <mxGeometry relative="1" as="geometry" />
        </mxCell>
        <mxCell id="TqYT2SiAFiG7cCbTbI7m-17" value="Apellidos" style="ellipse;whiteSpace=wrap;html=1;align=center;" vertex="1" parent="1">
          <mxGeometry x="540" y="160" width="100" height="40" as="geometry" />
        </mxCell>
        <mxCell id="TqYT2SiAFiG7cCbTbI7m-22" value="Matricula" style="whiteSpace=wrap;html=1;align=center;" vertex="1" parent="1">
          <mxGeometry x="325" y="350" width="100" height="40" as="geometry" />
        </mxCell>
        <mxCell id="TqYT2SiAFiG7cCbTbI7m-29" style="edgeStyle=orthogonalEdgeStyle;rounded=0;orthogonalLoop=1;jettySize=auto;html=1;exitX=0;exitY=0.5;exitDx=0;exitDy=0;entryX=1;entryY=0.5;entryDx=0;entryDy=0;endArrow=none;endFill=0;" edge="1" parent="1" source="TqYT2SiAFiG7cCbTbI7m-23" target="TqYT2SiAFiG7cCbTbI7m-3">
          <mxGeometry relative="1" as="geometry" />
        </mxCell>
        <mxCell id="TqYT2SiAFiG7cCbTbI7m-23" value="Nombre" style="ellipse;whiteSpace=wrap;html=1;align=center;" vertex="1" parent="1">
          <mxGeometry x="670" y="210" width="100" height="40" as="geometry" />
        </mxCell>
        <mxCell id="TqYT2SiAFiG7cCbTbI7m-30" style="edgeStyle=orthogonalEdgeStyle;rounded=0;orthogonalLoop=1;jettySize=auto;html=1;exitX=0;exitY=0.5;exitDx=0;exitDy=0;entryX=1;entryY=1;entryDx=0;entryDy=0;endArrow=none;endFill=0;" edge="1" parent="1" source="TqYT2SiAFiG7cCbTbI7m-24" target="TqYT2SiAFiG7cCbTbI7m-3">
          <mxGeometry relative="1" as="geometry" />
        </mxCell>
        <mxCell id="TqYT2SiAFiG7cCbTbI7m-24" value="DNI" style="ellipse;whiteSpace=wrap;html=1;align=center;" vertex="1" parent="1">
          <mxGeometry x="670" y="260" width="100" height="40" as="geometry" />
        </mxCell>
        <mxCell id="TqYT2SiAFiG7cCbTbI7m-32" style="edgeStyle=orthogonalEdgeStyle;rounded=0;orthogonalLoop=1;jettySize=auto;html=1;exitX=0.5;exitY=0;exitDx=0;exitDy=0;entryX=0.5;entryY=1;entryDx=0;entryDy=0;endArrow=none;endFill=0;" edge="1" parent="1" source="TqYT2SiAFiG7cCbTbI7m-25" target="TqYT2SiAFiG7cCbTbI7m-3">
          <mxGeometry relative="1" as="geometry" />
        </mxCell>
        <mxCell id="TqYT2SiAFiG7cCbTbI7m-25" value="Codigo" style="ellipse;whiteSpace=wrap;html=1;align=center;" vertex="1" parent="1">
          <mxGeometry x="550" y="310" width="100" height="40" as="geometry" />
        </mxCell>
        <mxCell id="TqYT2SiAFiG7cCbTbI7m-31" style="edgeStyle=orthogonalEdgeStyle;rounded=0;orthogonalLoop=1;jettySize=auto;html=1;exitX=0;exitY=0;exitDx=0;exitDy=0;entryX=0.75;entryY=1;entryDx=0;entryDy=0;endArrow=none;endFill=0;" edge="1" parent="1" source="TqYT2SiAFiG7cCbTbI7m-26" target="TqYT2SiAFiG7cCbTbI7m-3">
          <mxGeometry relative="1" as="geometry">
            <Array as="points">
              <mxPoint x="685" y="300" />
              <mxPoint x="625" y="300" />
            </Array>
          </mxGeometry>
        </mxCell>
        <mxCell id="TqYT2SiAFiG7cCbTbI7m-26" value="Carrera" style="ellipse;whiteSpace=wrap;html=1;align=center;" vertex="1" parent="1">
          <mxGeometry x="670" y="310" width="100" height="40" as="geometry" />
        </mxCell>
        <mxCell id="TqYT2SiAFiG7cCbTbI7m-28" style="edgeStyle=orthogonalEdgeStyle;rounded=0;orthogonalLoop=1;jettySize=auto;html=1;exitX=0;exitY=1;exitDx=0;exitDy=0;entryX=1;entryY=0;entryDx=0;entryDy=0;endArrow=none;endFill=0;" edge="1" parent="1" source="TqYT2SiAFiG7cCbTbI7m-27" target="TqYT2SiAFiG7cCbTbI7m-3">
          <mxGeometry relative="1" as="geometry" />
        </mxCell>
        <mxCell id="TqYT2SiAFiG7cCbTbI7m-27" value="Facultad a la que pertenece" style="ellipse;whiteSpace=wrap;html=1;align=center;" vertex="1" parent="1">
          <mxGeometry x="670" y="150" width="100" height="40" as="geometry" />
        </mxCell>
        <mxCell id="TqYT2SiAFiG7cCbTbI7m-40" style="edgeStyle=orthogonalEdgeStyle;rounded=0;orthogonalLoop=1;jettySize=auto;html=1;exitX=1;exitY=0;exitDx=0;exitDy=0;entryX=0.25;entryY=1;entryDx=0;entryDy=0;endArrow=none;endFill=0;" edge="1" parent="1" source="TqYT2SiAFiG7cCbTbI7m-34" target="TqYT2SiAFiG7cCbTbI7m-22">
          <mxGeometry relative="1" as="geometry" />
        </mxCell>
        <mxCell id="TqYT2SiAFiG7cCbTbI7m-34" value="Sección" style="ellipse;whiteSpace=wrap;html=1;align=center;" vertex="1" parent="1">
          <mxGeometry x="180" y="450" width="100" height="40" as="geometry" />
        </mxCell>
        <mxCell id="TqYT2SiAFiG7cCbTbI7m-39" style="edgeStyle=orthogonalEdgeStyle;rounded=0;orthogonalLoop=1;jettySize=auto;html=1;exitX=1;exitY=0;exitDx=0;exitDy=0;entryX=0.5;entryY=1;entryDx=0;entryDy=0;endArrow=none;endFill=0;" edge="1" parent="1" source="TqYT2SiAFiG7cCbTbI7m-35" target="TqYT2SiAFiG7cCbTbI7m-22">
          <mxGeometry relative="1" as="geometry" />
        </mxCell>
        <mxCell id="TqYT2SiAFiG7cCbTbI7m-35" value="Grado" style="ellipse;whiteSpace=wrap;html=1;align=center;" vertex="1" parent="1">
          <mxGeometry x="280" y="480" width="100" height="40" as="geometry" />
        </mxCell>
        <mxCell id="TqYT2SiAFiG7cCbTbI7m-41" style="edgeStyle=orthogonalEdgeStyle;rounded=0;orthogonalLoop=1;jettySize=auto;html=1;exitX=0;exitY=0;exitDx=0;exitDy=0;entryX=1;entryY=1;entryDx=0;entryDy=0;endArrow=none;endFill=0;" edge="1" parent="1" source="TqYT2SiAFiG7cCbTbI7m-36" target="TqYT2SiAFiG7cCbTbI7m-22">
          <mxGeometry relative="1" as="geometry" />
        </mxCell>
        <mxCell id="TqYT2SiAFiG7cCbTbI7m-36" value="Código" style="ellipse;whiteSpace=wrap;html=1;align=center;" vertex="1" parent="1">
          <mxGeometry x="460" y="430" width="100" height="40" as="geometry" />
        </mxCell>
        <mxCell id="TqYT2SiAFiG7cCbTbI7m-38" style="edgeStyle=orthogonalEdgeStyle;rounded=0;orthogonalLoop=1;jettySize=auto;html=1;exitX=0;exitY=0;exitDx=0;exitDy=0;entryX=0.75;entryY=1;entryDx=0;entryDy=0;endArrow=none;endFill=0;" edge="1" parent="1" source="TqYT2SiAFiG7cCbTbI7m-37" target="TqYT2SiAFiG7cCbTbI7m-22">
          <mxGeometry relative="1" as="geometry" />
        </mxCell>
        <mxCell id="TqYT2SiAFiG7cCbTbI7m-37" value="Fecha" style="ellipse;whiteSpace=wrap;html=1;align=center;" vertex="1" parent="1">
          <mxGeometry x="390" y="480" width="100" height="40" as="geometry" />
        </mxCell>
        <mxCell id="TqYT2SiAFiG7cCbTbI7m-42" value="Unica" style="shape=rhombus;perimeter=rhombusPerimeter;whiteSpace=wrap;html=1;align=center;" vertex="1" parent="1">
          <mxGeometry x="420" y="280" width="100" height="40" as="geometry" />
        </mxCell>
        <mxCell id="TqYT2SiAFiG7cCbTbI7m-44" value="" style="endArrow=none;html=1;rounded=0;entryX=0;entryY=1;entryDx=0;entryDy=0;exitX=1;exitY=0;exitDx=0;exitDy=0;" edge="1" parent="1" source="TqYT2SiAFiG7cCbTbI7m-42" target="TqYT2SiAFiG7cCbTbI7m-3">
          <mxGeometry relative="1" as="geometry">
            <mxPoint x="320" y="260" as="sourcePoint" />
            <mxPoint x="480" y="260" as="targetPoint" />
          </mxGeometry>
        </mxCell>
        <mxCell id="TqYT2SiAFiG7cCbTbI7m-45" value="1" style="resizable=0;html=1;whiteSpace=wrap;align=right;verticalAlign=bottom;" connectable="0" vertex="1" parent="TqYT2SiAFiG7cCbTbI7m-44">
          <mxGeometry x="1" relative="1" as="geometry" />
        </mxCell>
        <mxCell id="TqYT2SiAFiG7cCbTbI7m-48" value="" style="endArrow=none;html=1;rounded=0;entryX=0.5;entryY=0;entryDx=0;entryDy=0;exitX=0;exitY=1;exitDx=0;exitDy=0;" edge="1" parent="1" source="TqYT2SiAFiG7cCbTbI7m-42" target="TqYT2SiAFiG7cCbTbI7m-22">
          <mxGeometry relative="1" as="geometry">
            <mxPoint x="482.5" y="340" as="sourcePoint" />
            <mxPoint x="430" y="350" as="targetPoint" />
          </mxGeometry>
        </mxCell>
        <mxCell id="TqYT2SiAFiG7cCbTbI7m-49" value="1" style="resizable=0;html=1;whiteSpace=wrap;align=right;verticalAlign=bottom;" connectable="0" vertex="1" parent="TqYT2SiAFiG7cCbTbI7m-48">
          <mxGeometry x="1" relative="1" as="geometry" />
        </mxCell>
        <mxCell id="TqYT2SiAFiG7cCbTbI7m-50" value="Dictado" style="shape=rhombus;perimeter=rhombusPerimeter;whiteSpace=wrap;html=1;align=center;" vertex="1" parent="1">
          <mxGeometry x="250" y="150" width="100" height="50" as="geometry" />
        </mxCell>
        <mxCell id="TqYT2SiAFiG7cCbTbI7m-52" value="" style="endArrow=none;html=1;rounded=0;entryX=0;entryY=1;entryDx=0;entryDy=0;exitX=1;exitY=0;exitDx=0;exitDy=0;" edge="1" parent="1" source="TqYT2SiAFiG7cCbTbI7m-50" target="TqYT2SiAFiG7cCbTbI7m-2">
          <mxGeometry relative="1" as="geometry">
            <mxPoint x="290" y="220" as="sourcePoint" />
            <mxPoint x="450" y="220" as="targetPoint" />
          </mxGeometry>
        </mxCell>
        <mxCell id="TqYT2SiAFiG7cCbTbI7m-53" value="1...N" style="resizable=0;html=1;whiteSpace=wrap;align=right;verticalAlign=bottom;" connectable="0" vertex="1" parent="TqYT2SiAFiG7cCbTbI7m-52">
          <mxGeometry x="1" relative="1" as="geometry">
            <mxPoint x="-10" as="offset" />
          </mxGeometry>
        </mxCell>
        <mxCell id="TqYT2SiAFiG7cCbTbI7m-54" value="" style="endArrow=none;html=1;rounded=0;entryX=0;entryY=1;entryDx=0;entryDy=0;exitX=1;exitY=0.5;exitDx=0;exitDy=0;" edge="1" parent="1" source="TqYT2SiAFiG7cCbTbI7m-1" target="TqYT2SiAFiG7cCbTbI7m-50">
          <mxGeometry relative="1" as="geometry">
            <mxPoint x="235" y="243" as="sourcePoint" />
            <mxPoint x="280" y="220" as="targetPoint" />
          </mxGeometry>
        </mxCell>
        <mxCell id="TqYT2SiAFiG7cCbTbI7m-55" value="1...1" style="resizable=0;html=1;whiteSpace=wrap;align=right;verticalAlign=bottom;" connectable="0" vertex="1" parent="TqYT2SiAFiG7cCbTbI7m-54">
          <mxGeometry x="1" relative="1" as="geometry">
            <mxPoint x="-25" y="53" as="offset" />
          </mxGeometry>
        </mxCell>
        <mxCell id="TqYT2SiAFiG7cCbTbI7m-56" value="Aprende" style="shape=rhombus;perimeter=rhombusPerimeter;whiteSpace=wrap;html=1;align=center;" vertex="1" parent="1">
          <mxGeometry x="400" y="190" width="90" height="40" as="geometry" />
        </mxCell>
        <mxCell id="TqYT2SiAFiG7cCbTbI7m-58" value="" style="endArrow=none;html=1;rounded=0;entryX=0;entryY=0.25;entryDx=0;entryDy=0;exitX=1;exitY=1;exitDx=0;exitDy=0;" edge="1" parent="1" source="TqYT2SiAFiG7cCbTbI7m-56" target="TqYT2SiAFiG7cCbTbI7m-3">
          <mxGeometry relative="1" as="geometry">
            <mxPoint x="290" y="260" as="sourcePoint" />
            <mxPoint x="450" y="260" as="targetPoint" />
          </mxGeometry>
        </mxCell>
        <mxCell id="TqYT2SiAFiG7cCbTbI7m-59" value="1...N" style="resizable=0;html=1;whiteSpace=wrap;align=right;verticalAlign=bottom;" connectable="0" vertex="1" parent="TqYT2SiAFiG7cCbTbI7m-58">
          <mxGeometry x="1" relative="1" as="geometry">
            <mxPoint x="-10" y="-10" as="offset" />
          </mxGeometry>
        </mxCell>
        <mxCell id="TqYT2SiAFiG7cCbTbI7m-60" value="" style="endArrow=none;html=1;rounded=0;entryX=0.5;entryY=1;entryDx=0;entryDy=0;exitX=0;exitY=0;exitDx=0;exitDy=0;" edge="1" parent="1" source="TqYT2SiAFiG7cCbTbI7m-56" target="TqYT2SiAFiG7cCbTbI7m-2">
          <mxGeometry relative="1" as="geometry">
            <mxPoint x="318" y="235" as="sourcePoint" />
            <mxPoint x="400" y="245" as="targetPoint" />
          </mxGeometry>
        </mxCell>
        <mxCell id="TqYT2SiAFiG7cCbTbI7m-61" value="1...N" style="resizable=0;html=1;whiteSpace=wrap;align=right;verticalAlign=bottom;" connectable="0" vertex="1" parent="TqYT2SiAFiG7cCbTbI7m-60">
          <mxGeometry x="1" relative="1" as="geometry">
            <mxPoint x="30" y="20" as="offset" />
          </mxGeometry>
        </mxCell>
      </root>
    </mxGraphModel>
  </diagram>
</mxfile>
